<?xml version="1.0" standalone="no"?>
<!DOCTYPE svg PUBLIC "-//W3C//DTD SVG 20010904//EN"
 "http://www.w3.org/TR/2001/REC-SVG-20010904/DTD/svg10.dtd">
<svg version="1.0" xmlns="http://www.w3.org/2000/svg"
 width="260.000000pt" height="260.000000pt" viewBox="0 0 260.000000 260.000000"
 preserveAspectRatio="xMidYMid meet">
<metadata>
Created by potrace 1.11, written by Peter Selinger 2001-2013
</metadata>
<g transform="translate(0.000000,260.000000) scale(0.100000,-0.100000)"
fill="#000000" stroke="none">
<path d="M1177 2525 c-42 -8 -138 -36 -213 -61 -75 -25 -157 -49 -182 -53 -53
-7 -66 -29 -36 -62 30 -33 98 -25 262 31 193 65 304 84 447 77 212 -11 364
-77 506 -217 146 -144 190 -266 193 -530 1 -182 11 -210 71 -210 18 0 36 3 38
8 10 20 -12 382 -27 440 -72 270 -276 469 -573 558 -76 23 -110 27 -248 30
-111 2 -184 -1 -238 -11z"/>
<path d="M1467 2240 c-80 -14 -185 -49 -302 -100 -161 -71 -245 -91 -409 -99
-151 -7 -165 -13 -152 -64 8 -35 34 -41 148 -39 187 4 284 27 488 118 184 81
339 107 469 80 67 -14 77 -14 98 -1 26 17 29 42 11 68 -28 37 -226 57 -351 37z"/>
<path d="M1525 1970 c-33 -10 -132 -43 -220 -74 -260 -88 -332 -101 -585 -101
-118 -1 -221 -4 -227 -8 -18 -11 -16 -62 1 -76 22 -18 208 -33 321 -26 192 12
417 64 632 145 197 74 302 78 374 13 51 -46 72 -87 71 -139 -2 -150 -198 -274
-539 -343 -189 -38 -544 -77 -783 -86 -85 -4 -165 -8 -177 -11 -31 -6 -41 -49
-18 -74 16 -18 32 -20 139 -20 208 0 665 47 880 91 309 63 513 175 581 321 34
72 34 163 1 233 -29 63 -111 138 -173 159 -64 22 -201 20 -278 -4z"/>
<path d="M1565 1705 c-249 -122 -606 -185 -972 -172 -173 6 -193 2 -193 -43 0
-56 53 -64 354 -57 304 7 487 37 711 114 155 54 264 110 272 141 17 71 -48 78
-172 17z"/>
<path d="M2058 1354 c-107 -92 -221 -146 -380 -179 -98 -21 -128 -46 -128
-108 0 -34 7 -53 30 -83 16 -21 58 -79 92 -129 128 -187 166 -223 207 -198 32
20 21 49 -63 163 -158 214 -177 243 -169 250 4 4 46 15 93 25 138 27 248 81
378 184 41 33 52 47 52 71 0 27 -22 50 -49 50 -5 0 -33 -21 -63 -46z"/>
<path d="M1095 1073 c-259 -40 -530 -73 -597 -73 -70 0 -88 -3 -101 -18 -23
-25 -21 -45 4 -68 31 -28 165 -23 424 15 316 46 403 54 435 41 34 -14 75 -64
188 -230 152 -225 208 -278 258 -245 36 23 29 51 -26 112 -28 31 -92 116 -141
189 -108 160 -148 209 -202 248 -36 27 -48 30 -126 32 -47 1 -99 0 -116 -3z"/>
<path d="M924 785 c-153 -23 -418 -76 -431 -87 -16 -13 -17 -60 -1 -76 18 -18
44 -15 219 19 204 39 359 59 384 49 27 -10 68 -56 189 -213 107 -139 136 -167
172 -167 20 0 54 32 54 52 0 4 -18 28 -40 53 -22 26 -85 104 -139 173 -173
222 -187 229 -407 197z"/>
<path d="M800 565 c-102 -29 -174 -84 -163 -126 7 -26 49 -36 71 -16 9 9 42
27 72 41 144 67 324 5 394 -136 30 -59 33 -96 11 -138 -24 -46 -62 -70 -113
-70 -39 0 -50 5 -84 40 -39 38 -40 43 -36 90 3 28 12 58 22 68 20 23 21 56 1
72 -46 38 -110 -46 -110 -145 0 -208 264 -292 382 -122 25 36 28 49 28 121 0
102 -25 155 -107 231 -97 90 -241 125 -368 90z"/>
<path d="M445 493 c-30 -29 4 -137 65 -207 34 -38 116 -98 179 -130 39 -21 77
-14 86 14 11 35 -4 58 -60 89 -101 57 -164 133 -165 198 0 48 -70 72 -105 36z"/>
</g>
</svg>
