#define foot.xbm_width 16
#define foot.xbm_height 16
static char foot.xbm_bits[] = {
   0x00, 0x00, 0xc0, 0x01, 0xc0, 0x01, 0xc0, 0x01, 0x80, 0x00, 0x98, 0x0c,
   0xf8, 0x0f, 0x98, 0x0c, 0x80, 0x00, 0x80, 0x00, 0x80, 0x00, 0x80, 0x00,
   0x80, 0x00, 0x80, 0x00, 0x80, 0x00, 0x00, 0x00};
